<mxfile host="app.diagrams.net" modified="2024-05-15T05:44:25.939Z" agent="Mozilla/5.0 (Macintosh; Intel Mac OS X 10_15_7) AppleWebKit/537.36 (KHTML, like Gecko) Chrome/124.0.0.0 Safari/537.36" etag="8Uss70nw8EP25ztyPG9t" version="24.4.0" type="github">
  <diagram name="第 1 页" id="7VYnXI2Is2dOJrmKhYV3">
    <mxGraphModel dx="1590" dy="885" grid="1" gridSize="10" guides="1" tooltips="1" connect="1" arrows="1" fold="1" page="1" pageScale="1" pageWidth="827" pageHeight="1169" math="0" shadow="0">
      <root>
        <mxCell id="0" />
        <mxCell id="1" parent="0" />
        <mxCell id="6R0XAJYXFJeScx2RA5hm-3" value="" style="rounded=1;whiteSpace=wrap;html=1;fillStyle=dashed;sketch=1;curveFitting=1;jiggle=2;fillColor=#f8cecc;strokeColor=#b85450;" parent="1" vertex="1">
          <mxGeometry x="270" y="870" width="700" height="250" as="geometry" />
        </mxCell>
        <mxCell id="6R0XAJYXFJeScx2RA5hm-41" value="" style="rounded=1;whiteSpace=wrap;html=1;sketch=1;hachureGap=4;jiggle=2;curveFitting=1;" parent="1" vertex="1">
          <mxGeometry x="560" y="930" width="215" height="160" as="geometry" />
        </mxCell>
        <mxCell id="6R0XAJYXFJeScx2RA5hm-29" value="" style="rounded=1;whiteSpace=wrap;html=1;sketch=1;hachureGap=4;jiggle=2;curveFitting=1;" parent="1" vertex="1">
          <mxGeometry x="310" y="930" width="200" height="160" as="geometry" />
        </mxCell>
        <mxCell id="6R0XAJYXFJeScx2RA5hm-2" value="SLS/&lt;br&gt;CDC数据源" style="strokeWidth=2;html=1;shape=mxgraph.flowchart.direct_data;whiteSpace=wrap;sketch=1;curveFitting=1;jiggle=2;fillColor=#dae8fc;strokeColor=#6c8ebf;" parent="1" vertex="1">
          <mxGeometry x="60" y="972.5" width="110" height="85" as="geometry" />
        </mxCell>
        <mxCell id="6R0XAJYXFJeScx2RA5hm-30" style="edgeStyle=orthogonalEdgeStyle;rounded=0;sketch=1;hachureGap=4;jiggle=2;curveFitting=1;orthogonalLoop=1;jettySize=auto;html=1;exitX=0.5;exitY=1;exitDx=0;exitDy=0;exitPerimeter=0;entryX=0.5;entryY=0;entryDx=0;entryDy=0;entryPerimeter=0;" parent="1" source="6R0XAJYXFJeScx2RA5hm-8" target="6R0XAJYXFJeScx2RA5hm-50" edge="1">
          <mxGeometry relative="1" as="geometry" />
        </mxCell>
        <mxCell id="6R0XAJYXFJeScx2RA5hm-45" value="存在" style="edgeLabel;html=1;align=center;verticalAlign=middle;resizable=0;points=[];sketch=1;hachureGap=4;jiggle=2;curveFitting=1;fontFamily=Comic Sans MS;fontSize=13;" parent="6R0XAJYXFJeScx2RA5hm-30" vertex="1" connectable="0">
          <mxGeometry x="-0.4143" y="1" relative="1" as="geometry">
            <mxPoint y="1" as="offset" />
          </mxGeometry>
        </mxCell>
        <mxCell id="6R0XAJYXFJeScx2RA5hm-46" style="edgeStyle=orthogonalEdgeStyle;rounded=0;sketch=1;hachureGap=4;jiggle=2;curveFitting=1;orthogonalLoop=1;jettySize=auto;html=1;exitX=1;exitY=0.5;exitDx=0;exitDy=0;exitPerimeter=0;" parent="1" source="6R0XAJYXFJeScx2RA5hm-8" edge="1">
          <mxGeometry relative="1" as="geometry">
            <mxPoint x="580" y="1015" as="targetPoint" />
          </mxGeometry>
        </mxCell>
        <mxCell id="6R0XAJYXFJeScx2RA5hm-47" value="不存在" style="edgeLabel;html=1;align=center;verticalAlign=middle;resizable=0;points=[];sketch=1;hachureGap=4;jiggle=2;curveFitting=1;fontFamily=Comic Sans MS;fontSize=13;" parent="6R0XAJYXFJeScx2RA5hm-46" vertex="1" connectable="0">
          <mxGeometry x="-0.579" y="-3" relative="1" as="geometry">
            <mxPoint x="17" y="-23" as="offset" />
          </mxGeometry>
        </mxCell>
        <mxCell id="6R0XAJYXFJeScx2RA5hm-8" value="判断UID在状态&lt;br&gt;中是否存在" style="strokeWidth=2;html=1;shape=mxgraph.flowchart.decision;whiteSpace=wrap;sketch=1;curveFitting=1;jiggle=2;fontFamily=Comic Sans MS;" parent="1" vertex="1">
          <mxGeometry x="325" y="970" width="170" height="90" as="geometry" />
        </mxCell>
        <mxCell id="6R0XAJYXFJeScx2RA5hm-12" style="edgeStyle=orthogonalEdgeStyle;rounded=0;orthogonalLoop=1;jettySize=auto;html=1;exitX=1;exitY=0.5;exitDx=0;exitDy=0;exitPerimeter=0;entryX=0;entryY=0.5;entryDx=0;entryDy=0;entryPerimeter=0;sketch=1;curveFitting=1;jiggle=2;" parent="1" source="6R0XAJYXFJeScx2RA5hm-2" target="6R0XAJYXFJeScx2RA5hm-8" edge="1">
          <mxGeometry relative="1" as="geometry" />
        </mxCell>
        <mxCell id="6R0XAJYXFJeScx2RA5hm-43" value="UID数据流" style="edgeLabel;html=1;align=center;verticalAlign=middle;resizable=0;points=[];sketch=1;hachureGap=4;jiggle=2;curveFitting=1;fontFamily=Comic Sans MS;fontSize=13;" parent="6R0XAJYXFJeScx2RA5hm-12" vertex="1" connectable="0">
          <mxGeometry x="-0.2516" y="1" relative="1" as="geometry">
            <mxPoint y="1" as="offset" />
          </mxGeometry>
        </mxCell>
        <mxCell id="6R0XAJYXFJeScx2RA5hm-17" value="增量计数&lt;br&gt;当日UV+1" style="rounded=1;whiteSpace=wrap;html=1;sketch=1;curveFitting=1;jiggle=2;" parent="1" vertex="1">
          <mxGeometry x="827" y="984" width="120" height="60" as="geometry" />
        </mxCell>
        <mxCell id="6R0XAJYXFJeScx2RA5hm-18" value="" style="shape=cylinder3;whiteSpace=wrap;html=1;boundedLbl=1;backgroundOutline=1;size=15;fillStyle=dashed;sketch=1;curveFitting=1;jiggle=2;fillColor=#dae8fc;strokeColor=#6c8ebf;" parent="1" vertex="1">
          <mxGeometry x="1029" y="908" width="210" height="210" as="geometry" />
        </mxCell>
        <mxCell id="6R0XAJYXFJeScx2RA5hm-19" value="Flink" style="text;html=1;align=center;verticalAlign=middle;whiteSpace=wrap;rounded=0;fontFamily=Comic Sans MS;fontSize=17;fontStyle=1" parent="1" vertex="1">
          <mxGeometry x="595" y="881.26" width="60" height="30" as="geometry" />
        </mxCell>
        <mxCell id="6R0XAJYXFJeScx2RA5hm-24" value="&lt;b&gt;Explorer&lt;/b&gt;" style="text;html=1;align=center;verticalAlign=middle;whiteSpace=wrap;rounded=0;fontFamily=Comic Sans MS;fontSize=17;" parent="1" vertex="1">
          <mxGeometry x="1104" y="942.38" width="60" height="30" as="geometry" />
        </mxCell>
        <mxCell id="6R0XAJYXFJeScx2RA5hm-26" value="&lt;font style=&quot;font-size: 12px;&quot;&gt;增量UV&lt;/font&gt;" style="edgeStyle=orthogonalEdgeStyle;rounded=0;orthogonalLoop=1;jettySize=auto;html=1;entryX=0;entryY=0.5;entryDx=0;entryDy=0;entryPerimeter=0;fontFamily=Comic Sans MS;fontSize=17;fontColor=default;sketch=1;curveFitting=1;jiggle=2;" parent="1" source="6R0XAJYXFJeScx2RA5hm-17" target="6R0XAJYXFJeScx2RA5hm-18" edge="1">
          <mxGeometry x="0.0667" y="20" relative="1" as="geometry">
            <mxPoint as="offset" />
            <mxPoint x="952" y="1010.3700000000001" as="sourcePoint" />
          </mxGeometry>
        </mxCell>
        <mxCell id="6R0XAJYXFJeScx2RA5hm-27" value="&lt;p style=&quot;border-color: var(--border-color); font-size: 10px; text-align: left;&quot;&gt;存储每小时的增量UV&lt;/p&gt;&lt;p style=&quot;border-color: var(--border-color); font-size: 10px; text-align: left;&quot;&gt;2024010100 UV:500&lt;/p&gt;&lt;p style=&quot;border-color: var(--border-color); font-size: 10px; text-align: left;&quot;&gt;2024010101 UV:300&lt;/p&gt;&lt;p style=&quot;border-color: var(--border-color); font-size: 10px; text-align: left;&quot;&gt;2024010102 UV:200&lt;/p&gt;&lt;p style=&quot;border-color: var(--border-color); font-size: 10px; text-align: left;&quot;&gt;&lt;span style=&quot;white-space: pre;&quot;&gt;&amp;nbsp;&amp;nbsp;&amp;nbsp;&amp;nbsp;&lt;/span&gt;&amp;nbsp; &amp;nbsp;……&lt;/p&gt;" style="rounded=1;whiteSpace=wrap;html=1;align=center;verticalAlign=middle;fontFamily=Comic Sans MS;fontSize=17;fontColor=default;fillColor=default;gradientColor=none;sketch=1;curveFitting=1;jiggle=2;" parent="1" vertex="1">
          <mxGeometry x="1064" y="981.74" width="140" height="120" as="geometry" />
        </mxCell>
        <mxCell id="6R0XAJYXFJeScx2RA5hm-28" value="State&lt;br&gt;Backend" style="shape=cylinder3;whiteSpace=wrap;html=1;boundedLbl=1;backgroundOutline=1;size=23.29629629629619;fillStyle=dashed;sketch=1;curveFitting=1;jiggle=2;fillColor=#dae8fc;strokeColor=#6c8ebf;" parent="1" vertex="1">
          <mxGeometry x="350" y="1210" width="115.75" height="110" as="geometry" />
        </mxCell>
        <mxCell id="6R0XAJYXFJeScx2RA5hm-42" style="edgeStyle=orthogonalEdgeStyle;rounded=0;sketch=1;hachureGap=4;jiggle=2;curveFitting=1;orthogonalLoop=1;jettySize=auto;html=1;exitX=1;exitY=0.5;exitDx=0;exitDy=0;exitPerimeter=0;" parent="1" source="6R0XAJYXFJeScx2RA5hm-36" target="6R0XAJYXFJeScx2RA5hm-17" edge="1">
          <mxGeometry relative="1" as="geometry" />
        </mxCell>
        <mxCell id="6R0XAJYXFJeScx2RA5hm-66" value="不存在" style="edgeLabel;html=1;align=center;verticalAlign=middle;resizable=0;points=[];sketch=1;hachureGap=4;jiggle=2;curveFitting=1;fontFamily=Comic Sans MS;fontSize=13;" parent="6R0XAJYXFJeScx2RA5hm-42" vertex="1" connectable="0">
          <mxGeometry x="0.3243" y="-1" relative="1" as="geometry">
            <mxPoint y="-15" as="offset" />
          </mxGeometry>
        </mxCell>
        <mxCell id="6R0XAJYXFJeScx2RA5hm-36" value="判断UID在维表&lt;br&gt;中是否存在" style="strokeWidth=2;html=1;shape=mxgraph.flowchart.decision;whiteSpace=wrap;sketch=1;curveFitting=1;jiggle=2;fontFamily=Comic Sans MS;" parent="1" vertex="1">
          <mxGeometry x="581" y="970" width="170" height="90" as="geometry" />
        </mxCell>
        <mxCell id="6R0XAJYXFJeScx2RA5hm-50" value="&lt;font style=&quot;font-size: 17px;&quot; face=&quot;Comic Sans MS&quot;&gt;结束&lt;/font&gt;" style="strokeWidth=2;html=1;shape=mxgraph.flowchart.terminator;whiteSpace=wrap;sketch=1;curveFitting=1;jiggle=2;fillColor=#d5e8d4;strokeColor=#82b366;" parent="1" vertex="1">
          <mxGeometry x="360" y="1130" width="100" height="60" as="geometry" />
        </mxCell>
        <mxCell id="6R0XAJYXFJeScx2RA5hm-53" style="edgeStyle=orthogonalEdgeStyle;rounded=0;sketch=1;hachureGap=4;jiggle=2;curveFitting=1;orthogonalLoop=1;jettySize=auto;html=1;exitX=0;exitY=0.5;exitDx=0;exitDy=0;exitPerimeter=0;entryX=0;entryY=0.5;entryDx=0;entryDy=0;entryPerimeter=0;" parent="1" source="6R0XAJYXFJeScx2RA5hm-28" target="6R0XAJYXFJeScx2RA5hm-8" edge="1">
          <mxGeometry relative="1" as="geometry">
            <Array as="points">
              <mxPoint x="270" y="1285" />
              <mxPoint x="270" y="1015" />
            </Array>
          </mxGeometry>
        </mxCell>
        <mxCell id="6R0XAJYXFJeScx2RA5hm-54" value="点查" style="edgeLabel;html=1;align=center;verticalAlign=middle;resizable=0;points=[];sketch=1;hachureGap=4;jiggle=2;curveFitting=1;fontFamily=Comic Sans MS;fontSize=13;" parent="6R0XAJYXFJeScx2RA5hm-53" vertex="1" connectable="0">
          <mxGeometry x="-0.0099" y="-3" relative="1" as="geometry">
            <mxPoint x="-3" y="-6" as="offset" />
          </mxGeometry>
        </mxCell>
        <mxCell id="6R0XAJYXFJeScx2RA5hm-55" style="edgeStyle=orthogonalEdgeStyle;rounded=0;sketch=1;hachureGap=4;jiggle=2;curveFitting=1;orthogonalLoop=1;jettySize=auto;html=1;exitX=1;exitY=0.5;exitDx=0;exitDy=0;exitPerimeter=0;entryX=1.002;entryY=0.568;entryDx=0;entryDy=0;entryPerimeter=0;" parent="1" source="6R0XAJYXFJeScx2RA5hm-8" target="6R0XAJYXFJeScx2RA5hm-28" edge="1">
          <mxGeometry relative="1" as="geometry">
            <Array as="points">
              <mxPoint x="520" y="1015" />
              <mxPoint x="520" y="1273" />
            </Array>
          </mxGeometry>
        </mxCell>
        <mxCell id="6R0XAJYXFJeScx2RA5hm-61" value="写入&lt;br style=&quot;font-size: 13px;&quot;&gt;Backend" style="edgeLabel;html=1;align=center;verticalAlign=middle;resizable=0;points=[];sketch=1;hachureGap=4;jiggle=2;curveFitting=1;fontFamily=Comic Sans MS;fontSize=13;" parent="6R0XAJYXFJeScx2RA5hm-55" vertex="1" connectable="0">
          <mxGeometry x="-0.0843" y="-3" relative="1" as="geometry">
            <mxPoint y="1" as="offset" />
          </mxGeometry>
        </mxCell>
        <mxCell id="6R0XAJYXFJeScx2RA5hm-56" value="&lt;font style=&quot;font-size: 17px;&quot; face=&quot;Comic Sans MS&quot;&gt;结束&lt;/font&gt;" style="strokeWidth=2;html=1;shape=mxgraph.flowchart.terminator;whiteSpace=wrap;sketch=1;curveFitting=1;jiggle=2;fillColor=#d5e8d4;strokeColor=#82b366;" parent="1" vertex="1">
          <mxGeometry x="617.13" y="1130" width="100" height="60" as="geometry" />
        </mxCell>
        <mxCell id="6R0XAJYXFJeScx2RA5hm-57" value="HBase/Lindrom&lt;br&gt;维表" style="shape=cylinder3;whiteSpace=wrap;html=1;boundedLbl=1;backgroundOutline=1;size=23.29629629629619;fillStyle=dashed;sketch=1;curveFitting=1;jiggle=2;fillColor=#dae8fc;strokeColor=#6c8ebf;" parent="1" vertex="1">
          <mxGeometry x="607.13" y="1216" width="115.75" height="110" as="geometry" />
        </mxCell>
        <mxCell id="6R0XAJYXFJeScx2RA5hm-58" style="edgeStyle=orthogonalEdgeStyle;rounded=0;sketch=1;hachureGap=4;jiggle=2;curveFitting=1;orthogonalLoop=1;jettySize=auto;html=1;exitX=0.5;exitY=1;exitDx=0;exitDy=0;exitPerimeter=0;entryX=0.5;entryY=0;entryDx=0;entryDy=0;entryPerimeter=0;" parent="1" source="6R0XAJYXFJeScx2RA5hm-36" target="6R0XAJYXFJeScx2RA5hm-56" edge="1">
          <mxGeometry relative="1" as="geometry" />
        </mxCell>
        <mxCell id="6R0XAJYXFJeScx2RA5hm-60" value="存在" style="edgeLabel;html=1;align=center;verticalAlign=middle;resizable=0;points=[];sketch=1;hachureGap=4;jiggle=2;curveFitting=1;fontFamily=Comic Sans MS;fontSize=13;" parent="6R0XAJYXFJeScx2RA5hm-58" vertex="1" connectable="0">
          <mxGeometry x="-0.3295" relative="1" as="geometry">
            <mxPoint as="offset" />
          </mxGeometry>
        </mxCell>
        <mxCell id="6R0XAJYXFJeScx2RA5hm-64" style="edgeStyle=orthogonalEdgeStyle;rounded=0;sketch=1;hachureGap=4;jiggle=2;curveFitting=1;orthogonalLoop=1;jettySize=auto;html=1;exitX=0;exitY=0.5;exitDx=0;exitDy=0;exitPerimeter=0;entryX=0;entryY=0.5;entryDx=0;entryDy=0;entryPerimeter=0;" parent="1" source="6R0XAJYXFJeScx2RA5hm-57" target="6R0XAJYXFJeScx2RA5hm-36" edge="1">
          <mxGeometry relative="1" as="geometry">
            <Array as="points">
              <mxPoint x="550" y="1271" />
              <mxPoint x="550" y="1015" />
            </Array>
          </mxGeometry>
        </mxCell>
        <mxCell id="6R0XAJYXFJeScx2RA5hm-70" value="点查" style="edgeLabel;html=1;align=center;verticalAlign=middle;resizable=0;points=[];sketch=1;hachureGap=4;jiggle=2;curveFitting=1;fontFamily=Comic Sans MS;fontSize=13;" parent="6R0XAJYXFJeScx2RA5hm-64" vertex="1" connectable="0">
          <mxGeometry x="0.0788" y="-2" relative="1" as="geometry">
            <mxPoint as="offset" />
          </mxGeometry>
        </mxCell>
        <mxCell id="6R0XAJYXFJeScx2RA5hm-65" style="edgeStyle=orthogonalEdgeStyle;rounded=0;sketch=1;hachureGap=4;jiggle=2;curveFitting=1;orthogonalLoop=1;jettySize=auto;html=1;exitX=1;exitY=0.5;exitDx=0;exitDy=0;exitPerimeter=0;entryX=1;entryY=0.5;entryDx=0;entryDy=0;entryPerimeter=0;" parent="1" source="6R0XAJYXFJeScx2RA5hm-36" target="6R0XAJYXFJeScx2RA5hm-57" edge="1">
          <mxGeometry relative="1" as="geometry">
            <Array as="points">
              <mxPoint x="790" y="1015" />
              <mxPoint x="790" y="1271" />
            </Array>
          </mxGeometry>
        </mxCell>
        <mxCell id="6R0XAJYXFJeScx2RA5hm-67" value="写入&lt;br style=&quot;font-size: 13px;&quot;&gt;维表" style="edgeLabel;html=1;align=center;verticalAlign=middle;resizable=0;points=[];sketch=1;hachureGap=4;jiggle=2;curveFitting=1;fontFamily=Comic Sans MS;fontSize=13;" parent="6R0XAJYXFJeScx2RA5hm-65" vertex="1" connectable="0">
          <mxGeometry x="-0.1136" relative="1" as="geometry">
            <mxPoint y="14" as="offset" />
          </mxGeometry>
        </mxCell>
        <mxCell id="6R0XAJYXFJeScx2RA5hm-68" value="状态去重" style="text;html=1;align=center;verticalAlign=middle;whiteSpace=wrap;rounded=0;fontFamily=Comic Sans MS;fontSize=15;" parent="1" vertex="1">
          <mxGeometry x="370" y="930" width="100" height="30" as="geometry" />
        </mxCell>
        <mxCell id="6R0XAJYXFJeScx2RA5hm-69" value="dim-join去重" style="text;html=1;align=center;verticalAlign=middle;whiteSpace=wrap;rounded=0;fontFamily=Comic Sans MS;fontSize=15;" parent="1" vertex="1">
          <mxGeometry x="629" y="930" width="91" height="30" as="geometry" />
        </mxCell>
        <mxCell id="6R0XAJYXFJeScx2RA5hm-72" style="edgeStyle=orthogonalEdgeStyle;rounded=0;sketch=1;hachureGap=4;jiggle=2;curveFitting=1;orthogonalLoop=1;jettySize=auto;html=1;exitX=0;exitY=0.5;exitDx=0;exitDy=0;" parent="1" source="6R0XAJYXFJeScx2RA5hm-71" edge="1">
          <mxGeometry relative="1" as="geometry">
            <mxPoint x="720" y="1271" as="targetPoint" />
            <Array as="points">
              <mxPoint x="795" y="1271" />
              <mxPoint x="795" y="1272" />
            </Array>
          </mxGeometry>
        </mxCell>
        <mxCell id="6R0XAJYXFJeScx2RA5hm-74" value="回流&lt;br style=&quot;font-size: 13px;&quot;&gt;（可选）" style="edgeLabel;html=1;align=center;verticalAlign=middle;resizable=0;points=[];sketch=1;hachureGap=4;jiggle=2;curveFitting=1;fontFamily=Comic Sans MS;fontSize=13;" parent="6R0XAJYXFJeScx2RA5hm-72" vertex="1" connectable="0">
          <mxGeometry x="-0.2957" y="-1" relative="1" as="geometry">
            <mxPoint x="10" y="-5" as="offset" />
          </mxGeometry>
        </mxCell>
        <mxCell id="6R0XAJYXFJeScx2RA5hm-71" value="离线ODPS&lt;br&gt;加工T-1数据" style="rounded=1;whiteSpace=wrap;html=1;sketch=1;curveFitting=1;jiggle=2;" parent="1" vertex="1">
          <mxGeometry x="870" y="1241" width="120" height="60" as="geometry" />
        </mxCell>
      </root>
    </mxGraphModel>
  </diagram>
</mxfile>
